<?xml version="1.0" standalone="no"?><!DOCTYPE svg PUBLIC "-//W3C//DTD SVG 1.1//EN" "http://www.w3.org/Graphics/SVG/1.1/DTD/svg11.dtd"><svg class="icon" width="128px" height="128.00px" viewBox="0 0 1024 1024" version="1.1" xmlns="http://www.w3.org/2000/svg"><path d="M312.9 444.5c0-33.3 5-65 13.9-94.3-17-4.7-34.2-5.6-51.6-2.5-30.5 5.4-32.3 8.3-29.7 39.1 0.2 2.5 0.5 5 0.9 7.5 3.1 22 6.3 44.1 9.4 66.1-11.8-27.1-17.4-55.9-23.7-85.5-30.5 22.6-48.3 51-53.6 87.1-0.4 2.8-0.1 6.6-1.8 8.2-11.5 11-8.3 25.2-9.2 38.6-0.4 6.7 2.2 8.5 8.7 8.7 11.6 0.4 24.5-4.2 34.1 6.9 1 1.2 4.1 0.6 6.3 0.6h106.3c-6.4-25.3-10-52.3-10-80.5zM852.5 474.5c-2.8-4.1-4.6-7.7-5.2-12.5-4.5-32.4-19.8-59-44.6-80.2-9.2-7.8-9.1-7.7-11.4 4.2-4.9 25.4-10.9 50.4-20.5 74.6-0.4-2.9 0-5.7 0.3-8.4 3.6-27.1 9.1-54 10.2-81.4 0.4-9.7-3.3-15.1-12.7-18.3-19.6-6.8-39.5-8.3-59.6-4.8-3 0.5-5.5 1-7.9 1.5 9 29.5 14.1 61.6 14.1 95.3 0 28.2-3.6 55.2-10 80.6h104c3.6 0 7.8 0.6 9.9-2.8 3.3-5.3 8.1-5 13.2-5 6.5 0.1 13 0 19.5 0 2.6 0 5.8 0 6-3.1 0.7-13.6 3-27.6-5.3-39.7zM393.6 545.7c2 1.8 3 4.9 3.9 7.6 12.9 37.8 38.1 65.4 71.5 86.1 26.5 16.5 54.5 18.8 82.2 4.1 36.7-19.4 63.6-48.2 77.8-87.8 1.1-3.2 1.9-7.1 4.2-9.2 21.4-19.5 23.9-46 26.8-72.3 0.4-4 2.3-9.4-2.3-12.1-4.7-2.7-9.2-1.1-13.1 2.9-5.5 5.6-12.4 6.9-20.1 6.9-74.3-0.2-148.6-0.1-222.9 0-6.5 0-12.7-0.4-17.9-4.8-3.7-3.1-7.3-7.9-12.6-5.4-6.4 3-2.2 9.6-3.7 15.2 3.4 24.4 5.6 50 26.2 68.8z" fill="#1296db" /><path d="M762.6 684.3c-2.3-13-11.8-23.5-24.4-27.2l-103.6-30.2c-2.7-0.9-5.4-1.7-8.1-2.6-8.8-2.9-18.2 0.1-23.9 7.4-45.7 59.7-138.1 58.4-182.5-2.8-4.1-5.7-11.6-7.7-18.3-5.5-38.6 12.5-77.4 24.4-116.2 36.2-14.3 4.4-22.4 14.9-25.2 28-6.3 29.6-11.6 59.5-15.9 89.5C242 796 255 811.3 274 811.3h238.9c79.6 0 159.2 0.1 238.8 0 19.1 0 28.5-5.9 29.9-19.8l-19-107.2zM239.2 680.7c0.8-4.2 2-8.1 3.5-11.8-5.5-4.5-10.6-9.7-15-15.8-3-4.2-8.6-5.7-13.5-4.1-28.4 9.2-57 18-85.6 26.7-10.5 3.2-16.5 11-18.6 20.7-4.6 21.8-8.6 43.9-11.7 66-2 13.9 7.6 25.2 21.6 25.2h102.6c4.6-35.9 10.2-71.6 16.7-106.9zM253.6 653.9c3.7-3.3 7.8-6.2 13-7.9 31.5-11 63-22.1 94.5-33.5-14.6-22.2-26.5-47.5-34.7-75.3-37.5 0-74.9-0.1-112.4 0-4.8 0-9.4-0.3-13.2-3.5-2.7-2.3-5.3-5.8-9.3-4-4.7 2.2-1.6 7.1-2.7 11.2 2.6 18.1 4.2 36.9 19.3 50.7 1.5 1.3 2.2 3.6 2.9 5.6 8.1 24 23 42.3 42.6 56.7zM836.5 530c-3.4-2-6.8-0.8-9.7 2.1-4 4.2-9.1 5.1-14.8 5.1-36.8-0.1-73.5 0-110.3 0-8.2 27.8-20.2 53.2-34.8 75.5l90.3 30.1c6.3 2.1 11.9 6.1 16.3 11.3 19.1-13.7 33.4-31.8 41.8-55 0.8-2.3 1.4-5.2 3.1-6.8 15.8-14.4 17.6-33.9 19.7-53.3 0.5-3 1.8-7-1.6-9zM913.9 693.8c-1.7-9.6-8.7-17.3-18-20l-76.4-22.2c-2-0.7-4-1.3-6-1.9-6.5-2.1-13.5 0.1-17.6 5.5-4.2 5.4-8.9 10.2-13.9 14.2 0.7 2.3 1.3 4.6 1.7 7.1l17.3 111h104.9c14.1 0 21-4.3 22.1-14.6l-14.1-79.1zM679.4 386.8c-3.8-5.5-6.2-10.4-7.1-16.9-6.1-44-26.8-80.1-60.5-108.8-12.5-10.6-12.4-10.5-15.5 5.8-6.6 34.4-14.8 68.4-27.8 101.2-0.5-3.9-0.1-7.7 0.4-11.4 4.8-36.8 12.4-73.2 13.9-110.4 0.5-13.2-4.5-20.4-17.3-24.9-26.6-9.3-53.6-11.3-80.9-6.5-41.4 7.3-43.8 11.2-40.3 53 0.3 3.4 0.7 6.8 1.2 10.2 4.2 29.9 8.5 59.8 12.8 89.7-16-36.8-23.6-75.8-32.2-116-41.4 30.7-65.6 69.2-72.8 118.1-0.6 3.8-0.2 8.9-2.5 11.1-15.6 15-11.3 34.2-12.5 52.4-0.6 9.1 3 11.6 11.8 11.9 15.8 0.5 33.2-5.7 46.3 9.4 1.4 1.6 5.6 0.8 8.5 0.8h215.5c4.9 0 10.6 0.8 13.5-3.8 4.5-7.3 11-6.8 17.9-6.7 8.8 0.2 17.6 0 26.4 0 3.5 0 7.9 0 8.1-4.3 1.2-18.5 4.4-37.5-6.9-53.9z m-213.4 36l45.8-79.3 45.8 79.3H466z" fill="#1296db" /></svg>